<?xml version="1.0" encoding="UTF-8" standalone="no"?>
<!DOCTYPE svg PUBLIC "-//W3C//DTD SVG 1.1//EN" "http://www.w3.org/Graphics/SVG/1.1/DTD/svg11.dtd">
<svg xmlns="http://www.w3.org/2000/svg" xmlns:xlink="http://www.w3.org/1999/xlink" version="1.1" id="F60717CB-0552-48FB-BC35-2F5FB9608299" width="384pt" height="157.46994pt" viewBox="0 0 384 157.46994">
<g enable-background="new">
<path transform="matrix(.6746785,0,0,.6746785,-137.47249,-137.95827)" fill="#ffffff" d="M 203.76 204.48 L 772.92 204.48 L 772.92 437.88 L 203.76 437.88 Z "/>
<line transform="matrix(.6746785,0,0,.6746785,-137.47249,-137.95827)" x1="288.72" y1="300.48" x2="503.28" y2="300.48" stroke-width="2.1343499" stroke-linecap="round" stroke-dasharray="0 4.32" stroke-miterlimit="1.4267182" stroke-linejoin="miter" stroke="#000000"/>
<line transform="matrix(.6746785,0,0,.6746785,-137.47249,-137.95827)" x1="287.28" y1="246.48" x2="504.72" y2="246.48" stroke-width="2.1343499" stroke-linecap="butt" stroke-miterlimit="1.4267182" stroke-linejoin="miter" stroke="#000000"/>
<text transform="matrix(.6746785 0 0 .6746785 -137.47249 -137.95827)" font-size="10.92" font-family="Arial" font-weight="bold"><tspan y="408.72" x="285.33366 291.45368 297.57368 303.57368">1960</tspan></text>
<text transform="matrix(.6746785 0 0 .6746785 -137.47249 -137.95827)" font-size="10.92" font-family="Arial" font-weight="bold"><tspan y="408.72" x="348.81367 354.93367 361.05366 367.05366">1980</tspan></text>
<text transform="matrix(.6746785 0 0 .6746785 -137.47249 -137.95827)" font-size="10.92" font-family="Arial" font-weight="bold"><tspan y="408.72" x="412.4137 418.5337 424.6537 430.6537">2000</tspan></text>
<text transform="matrix(.6746785 0 0 .6746785 -137.47249 -137.95827)" font-size="10.92" font-family="Arial" font-weight="bold"><tspan y="408.72" x="475.89369 482.0137 488.1337 494.1337">2020</tspan></text>
<path transform="matrix(.6746785,0,0,.6746785,-137.47249,-137.95827)" fill="none" stroke-width="1.44" stroke-linecap="butt" stroke-miterlimit="1.4267182" stroke-linejoin="miter" stroke="#000000" d="M 287.28 390.48 L 504.72 390.48 M 297.48 390.48 L 297.48 396.6 M 360.96 390.48 L 360.96 396.6 M 424.56 390.48 L 424.56 396.6 M 488.04 390.48 L 488.04 396.6 M 291.24 390.48 L 291.24 393.84 M 303.84 390.48 L 303.84 393.84 M 310.2 390.48 L 310.2 393.84 M 316.56 390.48 L 316.56 393.84 M 322.92 390.48 L 322.92 393.84 M 329.28 390.48 L 329.28 393.84 M 335.64 390.48 L 335.64 393.84 M 342 390.48 L 342 393.84 M 348.36 390.48 L 348.36 393.84 M 354.6 390.48 L 354.6 393.84 M 367.32 390.48 L 367.32 393.84 M 373.68 390.48 L 373.68 393.84 M 380.04 390.48 L 380.04 393.84 M 386.4 390.48 L 386.4 393.84 M 392.76 390.48 L 392.76 393.84 M 399.12 390.48 L 399.12 393.84 M 405.48 390.48 L 405.48 393.84 M 411.84 390.48 L 411.84 393.84 M 418.08 390.48 L 418.08 393.84 M 430.92 390.48 L 430.92 393.84 M 437.28 390.48 L 437.28 393.84 M 443.64 390.48 L 443.64 393.84 M 450 390.48 L 450 393.84 M 456.36 390.48 L 456.36 393.84 M 462.72 390.48 L 462.72 393.84 M 469.08 390.48 L 469.08 393.84 M 475.44 390.48 L 475.44 393.84 M 481.68 390.48 L 481.68 393.84 M 494.4 390.48 L 494.4 393.84 M 500.76 390.48 L 500.76 393.84 "/>
<text transform="matrix(.6746785 0 0 .6746785 -137.47249 -137.95827)" font-size="10.92" font-family="Arial" font-weight="bold"><tspan y="394.46015" x="246.43776 250.03775 256.15776 262.27775 268.39778 274.39778">-10000</tspan></text>
<text transform="matrix(.6746785 0 0 .6746785 -137.47249 -137.95827)" font-size="10.92" font-family="Arial" font-weight="bold"><tspan y="349.46015" x="252.51091 256.1109 262.2309 268.35093 274.35093">-5000</tspan></text>
<text transform="matrix(.6746785 0 0 .6746785 -137.47249 -137.95827)" font-size="10.92" font-family="Arial" font-weight="bold"><tspan y="304.46015" x="274.36683">0</tspan></text>
<text transform="matrix(.6746785 0 0 .6746785 -137.47249 -137.95827)" font-size="10.92" font-family="Arial" font-weight="bold"><tspan y="259.46015" x="256.14735 262.26734 268.38734 274.38734">5000</tspan></text>
<path transform="matrix(.6746785,0,0,.6746785,-137.47249,-137.95827)" fill="none" stroke-width="1.44" stroke-linecap="butt" stroke-miterlimit="1.4267182" stroke-linejoin="miter" stroke="#000000" d="M 288 391.2 L 288 245.76 M 288 390.48 L 281.88 390.48 M 288 345.48 L 281.88 345.48 M 288 255.48 L 281.88 255.48 "/>
<line transform="matrix(.6746785,0,0,.6746785,-137.47249,-137.95827)" x1="288" y1="300.48" x2="281.88" y2="300.48" stroke-width="2.1343499" stroke-linecap="butt" stroke-miterlimit="1.4267182" stroke-linejoin="miter" stroke="#000000"/>
<text transform="matrix(.6746785 0 0 .6746785 -137.47249 -137.95827)" font-size="10.92" font-family="Arial" font-weight="bold"><tspan y="360.96" x="511.56">5</tspan></text>
<text transform="matrix(.6746785 0 0 .6746785 -137.47249 -137.95827)" font-size="10.92" font-family="Arial" font-weight="bold"><tspan y="305.52" x="511.56 517.68">10</tspan></text>
<text transform="matrix(.6746785 0 0 .6746785 -137.47249 -137.95827)" font-size="10.92" font-family="Arial" font-weight="bold"><tspan y="250.08" x="511.56 517.68">15</tspan></text>
<path transform="matrix(.6746785,0,0,.6746785,-137.47249,-137.95827)" fill="none" stroke-width="2.16" stroke-linecap="butt" stroke-miterlimit="1.4267182" stroke-linejoin="miter" stroke="#000000" d="M 504 391.56 L 504 245.4 M 504 357.36 L 508.68 357.36 M 504 301.92 L 508.68 301.92 M 504 246.48 L 508.68 246.48 M 504 390.6 L 506.88 390.6 M 504 379.44 L 506.88 379.44 M 504 368.4 L 506.88 368.4 M 504 346.32 L 506.88 346.32 M 504 335.16 L 506.88 335.16 M 504 324.12 L 506.88 324.12 M 504 313.08 L 506.88 313.08 M 504 290.88 L 506.88 290.88 M 504 279.72 L 506.88 279.72 M 504 268.68 L 506.88 268.68 M 504 257.64 L 506.88 257.64 "/>
<clipPath id="F60717CB-0552-48FB-BC35-2F5FB9608299_cp0">
<path transform="matrix(.6746785,0,0,.6746785,-137.47249,-137.95827)" d="M 288 246.48 L 504 246.48 L 504 390.48 L 288 390.48 Z "/>
</clipPath>
<clipPath id="F60717CB-0552-48FB-BC35-2F5FB9608299_cp1">
<path transform="matrix(.6746785,0,0,.6746785,-137.47249,-137.95827)" d="M 288 246.48 L 504 246.48 L 504 390.48 L 288 390.48 Z "/>
</clipPath>
<clipPath id="F60717CB-0552-48FB-BC35-2F5FB9608299_cp2">
<path transform="matrix(.6746785,0,0,.6746785,-137.47249,-137.95827)" d="M 288 246.48 L 504 246.48 L 504 390.48 L 288 390.48 Z "/>
</clipPath>
<clipPath id="F60717CB-0552-48FB-BC35-2F5FB9608299_cp3">
<path transform="matrix(.6746785,0,0,.6746785,-137.47249,-137.95827)" d="M 287.4 245.88 L 504.96 245.88 L 504.96 391.2 L 287.4 391.2 Z "/>
</clipPath>
<g  clip-path="url(#F60717CB-0552-48FB-BC35-2F5FB9608299_cp3)">
<path transform="matrix(.6746785,0,0,.6746785,-137.47249,-137.95827)" fill="none" stroke-width="1.44" stroke-linecap="round" stroke-dasharray="2.88 4.32" stroke-miterlimit="1.4267182" stroke-linejoin="miter" stroke="#000000" d="M 281.76 282 L 281.76 282 "/>
</g>
<clipPath id="F60717CB-0552-48FB-BC35-2F5FB9608299_cp4">
<path transform="matrix(.6746785,0,0,.6746785,-137.47249,-137.95827)" d="M 287.4 245.88 L 504.96 245.88 L 504.96 391.2 L 287.4 391.2 Z "/>
</clipPath>
<g  clip-path="url(#F60717CB-0552-48FB-BC35-2F5FB9608299_cp4)">
<path transform="matrix(.6746785,0,0,.6746785,-137.47249,-137.95827)" fill="none" stroke-width="1.44" stroke-linecap="round" stroke-dasharray="2.88 4.32" stroke-miterlimit="1.4267182" stroke-linejoin="miter" stroke="#000000" d="M 284.88 285.84 L 288 298.08 L 291.12 309.84 L 294.24 286.2 L 297.48 290.16 L 300.6 300.84 L 303.84 291.96 L 306.96 291 L 310.2 286.68 L 313.32 284.52 L 316.56 284.28 L 319.68 287.28 L 322.92 286.56 L 326.04 282.72 L 329.28 293.52 L 332.4 294.36 L 335.64 275.52 L 338.76 274.32 L 342 285 L 345.12 309.12 L 348.24 274.44 L 351.48 271.2 L 354.6 264.24 L 357.84 275.52 L 360.96 296.28 L 364.2 290.64 L 367.32 308.4 L 370.56 288.72 L 373.68 263.04 L 376.92 281.28 L 380.04 278.52 L 383.28 274.92 L 386.4 277.8 L 389.64 279.12 L 392.76 287.52 L 396 310.2 L 399.12 293.52 L 402.24 284.64 L 405.48 275.28 L 408.6 283.92 L 411.84 284.28 L 414.96 274.92 L 418.2 283.44 L 421.32 282.36 L 424.56 269.88 L 427.68 300.12 L 430.92 304.56 L 434.04 289.32 L 437.28 286.92 L 440.4 278.28 L 443.64 276.24 L 446.76 285.96 L 450 306.72 L 453.12 349.92 L 456.24 307.8 L 459.48 293.28 L 462.6 277.08 L 465.84 287.4 L 468.96 279.12 L 472.2 277.8 L 475.32 277.08 L 478.56 283.44 L 481.68 278.76 L 484.92 284.52 L 488.04 388.2 L 491.28 257.52 L 494.4 249.12 L 497.64 275.88 L 500.76 297.72 "/>
</g>
<clipPath id="F60717CB-0552-48FB-BC35-2F5FB9608299_cp5">
<path transform="matrix(.6746785,0,0,.6746785,-137.47249,-137.95827)" d="M 288 246.48 L 504 246.48 L 504 390.48 L 288 390.48 Z "/>
</clipPath>
<clipPath id="F60717CB-0552-48FB-BC35-2F5FB9608299_cp6">
<path transform="matrix(.6746785,0,0,.6746785,-137.47249,-137.95827)" d="M 287.4 245.88 L 504.96 245.88 L 504.96 391.2 L 287.4 391.2 Z "/>
</clipPath>
<g  clip-path="url(#F60717CB-0552-48FB-BC35-2F5FB9608299_cp6)">
<path transform="matrix(.6746785,0,0,.6746785,-137.47249,-137.95827)" fill="none" stroke-width="1.44" stroke-linecap="butt" stroke-miterlimit="1.4267182" stroke-linejoin="miter" stroke="#800080" d="M 278.52 351.72 L 278.52 351.72 "/>
</g>
<clipPath id="F60717CB-0552-48FB-BC35-2F5FB9608299_cp7">
<path transform="matrix(.6746785,0,0,.6746785,-137.47249,-137.95827)" d="M 287.4 245.88 L 504.96 245.88 L 504.96 391.2 L 287.4 391.2 Z "/>
</clipPath>
<g  clip-path="url(#F60717CB-0552-48FB-BC35-2F5FB9608299_cp7)">
<path transform="matrix(.6746785,0,0,.6746785,-137.47249,-137.95827)" fill="none" stroke-width="1.44" stroke-linecap="butt" stroke-miterlimit="1.4267182" stroke-linejoin="miter" stroke="#800080" d="M 284.88 367.32 L 284.88 367.32 L 288 365.04 L 291.12 337.32 L 294.24 351.72 L 297.48 351.72 L 300.6 338.52 L 303.84 351.72 L 306.96 349.56 L 310.2 355.08 L 313.32 362.88 L 316.56 370.56 L 319.68 370.56 L 322.92 372.84 L 326.04 373.92 L 329.28 358.44 L 332.4 347.28 L 335.64 350.64 L 338.76 358.44 L 342 350.64 L 345.12 318.48 L 348.24 327.36 L 351.48 334.08 L 354.6 345.12 L 357.84 348.48 L 360.96 334.08 L 364.2 328.56 L 367.32 305.28 L 370.56 306.36 L 373.68 329.64 L 376.92 332.88 L 380.04 335.16 L 383.28 344.04 L 386.4 351.72 L 389.64 354 L 392.76 350.64 L 396 337.32 L 399.12 329.64 L 402.24 336.24 L 405.48 345.12 L 408.6 350.64 L 411.84 352.92 L 414.96 358.44 L 418.2 362.88 L 421.32 366.12 L 424.56 368.4 L 427.68 360.6 L 430.92 348.48 L 434.04 346.2 L 437.28 351.72 L 440.4 356.16 L 443.64 361.8 L 446.76 361.8 L 450 348.48 L 453.12 309.72 L 456.24 306.36 L 459.48 314.16 L 462.6 322.92 L 465.84 330.72 L 468.96 344.04 L 472.2 354 L 475.32 358.44 L 478.56 363.96 L 481.68 369.48 L 484.92 371.76 L 488.04 322.92 L 491.28 354 L 494.4 372.84 L 497.64 372.84 L 500.76 368.4 "/>
</g>
<clipPath id="F60717CB-0552-48FB-BC35-2F5FB9608299_cp8">
<path transform="matrix(.6746785,0,0,.6746785,-137.47249,-137.95827)" d="M 305.52 211.68 L 487.08 211.68 L 487.08 233.52 L 305.52 233.52 Z "/>
</clipPath>
<text transform="matrix(.6746785 0 0 .6746785 -137.47249 -137.95827)" font-size="13.92" font-family="Arial" font-weight="bold"><tspan y="227.52" x="308.4 318.48 327 332.4 337.68 345.48 354 358.56 362.4 371.64 380.16 388.56 397.08 400.92 408.6 413.28 417.12 425.64 434.04 437.88 447.12 455.52 460.92 468.72 476.4">Current Population Survey</tspan></text>
<clipPath id="F60717CB-0552-48FB-BC35-2F5FB9608299_cp9">
<path transform="matrix(.6746785,0,0,.6746785,-137.47249,-137.95827)" d="M 380.4 411.12 L 411.6 411.12 L 411.6 430.68 L 380.4 430.68 Z "/>
</clipPath>
<text transform="matrix(.6746785 0 0 .6746785 -137.47249 -137.95827)" font-size="12" font-family="Arial" font-weight="bold"><tspan y="425.16" x="383.28 391.08 397.56 403.92">Year</tspan></text>
<clipPath id="F60717CB-0552-48FB-BC35-2F5FB9608299_cp10">
<path transform="matrix(.6746785,0,0,.6746785,-137.47249,-137.95827)" d="M 248.28 315.48 L 267.84 315.48 L 267.84 321.24 L 248.28 321.24 Z "/>
</clipPath>
<clipPath id="F60717CB-0552-48FB-BC35-2F5FB9608299_cp11">
<path transform="matrix(.6746785,0,0,.6746785,-137.47249,-137.95827)" d="M 527.16 272.16 L 560.76 272.16 L 560.76 364.32 L 527.16 364.32 Z "/>
</clipPath>
<text transform="matrix(.0000000054280986 .45519106 -.45519106 .0000000054280986 281.30805 -216.74382)" font-size="12" font-family="Arial" font-weight="bold"><tspan y="275.04" x="546.72 555.36 562.68 569.4 579.96 587.28 590.64 597.96 604.56 615.24 621.96 629.16">Unemployment</tspan></text>
<text transform="matrix(.0000000054280986 .45519106 -.45519106 .0000000054280986 283.65684 -201.72252)" font-size="12" font-family="Arial" font-weight="bold"><tspan y="294.12" x="532.8 541.44 548.16 552.12 558.84 562.2 566.16 576.72">Rate (%)</tspan></text>
<clipPath id="F60717CB-0552-48FB-BC35-2F5FB9608299_cp12">
<path transform="matrix(.6746785,0,0,.6746785,-137.47249,-137.95827)" d="M 566.4 293.28 L 765.72 293.28 L 765.72 312.48 L 566.4 312.48 Z "/>
</clipPath>
<text transform="matrix(.6746785 0 0 .6746785 -137.47249 -137.95827)" font-size="12" font-family="Arial"><tspan y="306.96" x="596.16 604.8 611.52 618.24 628.2 634.92 637.56 644.28 650.28 657 663.72 670.44 678.48 684.48 687.84 694.56 701.28 708 714.72 721.44 725.4 732.12 739.44 746.16 750.12 756.12">Unemployed_Pct_Labor_Force</tspan></text>
<line transform="matrix(.6746785,0,0,.6746785,-137.47249,-137.95827)" x1="572.16" y1="302.88" x2="587.52" y2="302.88" stroke-width="2.1343499" stroke-linecap="butt" stroke-miterlimit="1.4267182" stroke-linejoin="miter" stroke="#800080"/>
<clipPath id="F60717CB-0552-48FB-BC35-2F5FB9608299_cp13">
<path transform="matrix(.6746785,0,0,.6746785,-137.47249,-137.95827)" d="M 566.4 312.48 L 719.64 312.48 L 719.64 331.68 L 566.4 331.68 Z "/>
</clipPath>
<text transform="matrix(.6746785 0 0 .6746785 -137.47249 -137.95827)" font-size="12" font-family="Arial"><tspan y="326.16" x="596.16 604.8 611.4 614.04 617.4 624 630.6 637.92 644.52 647.88 654.48 657.12 663.84 671.76 681.6 688.2 690.84 697.56 703.44 710.04">Delta_Total_Employed</tspan></text>
<line transform="matrix(.6746785,0,0,.6746785,-137.47249,-137.95827)" x1="572.88" y1="322.08" x2="586.8" y2="322.08" stroke-width="2.1343499" stroke-linecap="round" stroke-dasharray="2.88 4.32" stroke-miterlimit="1.4267182" stroke-linejoin="miter" stroke="#000000"/>
<clipPath id="F60717CB-0552-48FB-BC35-2F5FB9608299_cp14">
<path transform="matrix(.6746785,0,0,.6746785,-137.47249,-137.95827)" d="M 210.96 233.52 L 244.32 233.52 L 244.32 386.4 L 210.96 386.4 Z "/>
</clipPath>
<text transform="matrix(-.000000019897036 -.45519109 .45519109 -.000000019897036 -153.38121 172.38994)" font-size="12" font-family="Arial" font-weight="bold"><tspan y="358.2" x="225 233.04 239.64 246.24 250.92 254.16 260.76 264.12 272.64 279.84 286.56 293.76 300.96 307.56 310.92 314.16">Yearly Change in</tspan></text>
<text transform="matrix(-.000000019897036 -.45519109 .45519109 -.000000019897036 -158.62502 190.19702)" font-size="12" font-family="Arial" font-weight="bold"><tspan y="383.52" x="238.8 246.84 257.52 264.84 268.2 275.52 282.24 292.8 299.52 306.84 310.8 314.16 318.12 325.44 332.76 339.96 347.28 354 360.72 368.04 375.36 381.96">Employment (Thousands)</tspan></text>
</g>
</svg>
