<?xml version="1.0" encoding="UTF-8" standalone="no"?>
<!DOCTYPE svg PUBLIC "-//W3C//DTD SVG 1.1//EN" "http://www.w3.org/Graphics/SVG/1.1/DTD/svg11.dtd">
<svg xmlns="http://www.w3.org/2000/svg" xmlns:xlink="http://www.w3.org/1999/xlink" version="1.1" id="4EA3D49A-875F-4B13-8D09-B3A239E6B04C" width="384pt" height="159.89725pt" viewBox="0 0 384 159.89725">
<g enable-background="new">
<path transform="matrix(.68507817,0,0,.68507817,-138.19397,-140.08478)" fill="#ffffff" d="M 201.72 204.48 L 762.24 204.48 L 762.24 437.88 L 201.72 437.88 Z "/>
<line transform="matrix(.68507817,0,0,.68507817,-138.19397,-140.08478)" x1="287.28" y1="246.48" x2="504.72" y2="246.48" stroke-width="2.10195" stroke-linecap="butt" stroke-miterlimit="1.4267182" stroke-linejoin="miter" stroke="#000000"/>
<line transform="matrix(.68507817,0,0,.68507817,-138.19397,-140.08478)" x1="504" y1="245.76" x2="504" y2="391.2" stroke-width="2.10195" stroke-linecap="butt" stroke-miterlimit="1.4267182" stroke-linejoin="miter" stroke="#000000"/>
<text transform="matrix(.68507817 0 0 .68507817 -138.19397 -140.08478)" font-size="10.92" font-family="Arial" font-weight="bold"><tspan y="408.72" x="290.97364 297.09364 303.21363 309.21363">1960</tspan></text>
<text transform="matrix(.68507817 0 0 .68507817 -138.19397 -140.08478)" font-size="10.92" font-family="Arial" font-weight="bold"><tspan y="408.72" x="351.81364 357.93363 364.05363 370.05363">1980</tspan></text>
<text transform="matrix(.68507817 0 0 .68507817 -138.19397 -140.08478)" font-size="10.92" font-family="Arial" font-weight="bold"><tspan y="408.72" x="412.65367 418.77366 424.89369 430.89369">2000</tspan></text>
<text transform="matrix(.68507817 0 0 .68507817 -138.19397 -140.08478)" font-size="10.92" font-family="Arial" font-weight="bold"><tspan y="408.72" x="473.49369 479.61369 485.7337 491.7337">2020</tspan></text>
<path transform="matrix(.68507817,0,0,.68507817,-138.19397,-140.08478)" fill="none" stroke-width="1.44" stroke-linecap="butt" stroke-miterlimit="1.4267182" stroke-linejoin="miter" stroke="#000000" d="M 287.28 390.48 L 504.72 390.48 M 303.12 390.48 L 303.12 396.6 M 363.96 390.48 L 363.96 396.6 M 424.8 390.48 L 424.8 396.6 M 485.64 390.48 L 485.64 396.6 M 291 390.48 L 291 393.84 M 297 390.48 L 297 393.84 M 309.24 390.48 L 309.24 393.84 M 315.24 390.48 L 315.24 393.84 M 321.36 390.48 L 321.36 393.84 M 327.48 390.48 L 327.48 393.84 M 333.6 390.48 L 333.6 393.84 M 339.6 390.48 L 339.6 393.84 M 345.72 390.48 L 345.72 393.84 M 351.84 390.48 L 351.84 393.84 M 357.84 390.48 L 357.84 393.84 M 370.08 390.48 L 370.08 393.84 M 376.08 390.48 L 376.08 393.84 M 382.2 390.48 L 382.2 393.84 M 388.32 390.48 L 388.32 393.84 M 394.44 390.48 L 394.44 393.84 M 400.44 390.48 L 400.44 393.84 M 406.56 390.48 L 406.56 393.84 M 412.68 390.48 L 412.68 393.84 M 418.68 390.48 L 418.68 393.84 M 430.92 390.48 L 430.92 393.84 M 436.92 390.48 L 436.92 393.84 M 443.04 390.48 L 443.04 393.84 M 449.16 390.48 L 449.16 393.84 M 455.28 390.48 L 455.28 393.84 M 461.28 390.48 L 461.28 393.84 M 467.4 390.48 L 467.4 393.84 M 473.52 390.48 L 473.52 393.84 M 479.52 390.48 L 479.52 393.84 M 491.76 390.48 L 491.76 393.84 M 497.76 390.48 L 497.76 393.84 M 503.88 390.48 L 503.88 393.84 "/>
<text transform="matrix(.68507817 0 0 .68507817 -138.19397 -140.08478)" font-size="10.92" font-family="Arial" font-weight="bold"><tspan y="394.46015" x="274.36683">0</tspan></text>
<text transform="matrix(.68507817 0 0 .68507817 -138.19397 -140.08478)" font-size="10.92" font-family="Arial" font-weight="bold"><tspan y="346.46015" x="244.00099 250.12099 256.241 262.241 268.361 274.361">100000</tspan></text>
<text transform="matrix(.68507817 0 0 .68507817 -138.19397 -140.08478)" font-size="10.92" font-family="Arial" font-weight="bold"><tspan y="298.46015" x="244.00099 250.12099 256.241 262.241 268.361 274.361">200000</tspan></text>
<text transform="matrix(.68507817 0 0 .68507817 -138.19397 -140.08478)" font-size="10.92" font-family="Arial" font-weight="bold"><tspan y="250.46016" x="244.00099 250.12099 256.241 262.241 268.361 274.361">300000</tspan></text>
<path transform="matrix(.68507817,0,0,.68507817,-138.19397,-140.08478)" fill="none" stroke-width="1.44" stroke-linecap="butt" stroke-miterlimit="1.4267182" stroke-linejoin="miter" stroke="#000000" d="M 288 391.2 L 288 245.76 M 288 390.48 L 281.88 390.48 M 288 342.48 L 281.88 342.48 M 288 294.48 L 281.88 294.48 M 288 246.48 L 281.88 246.48 "/>
<clipPath id="4EA3D49A-875F-4B13-8D09-B3A239E6B04C_cp0">
<path transform="matrix(.68507817,0,0,.68507817,-138.19397,-140.08478)" d="M 288 246.48 L 504 246.48 L 504 390.48 L 288 390.48 Z "/>
</clipPath>
<clipPath id="4EA3D49A-875F-4B13-8D09-B3A239E6B04C_cp1">
<path transform="matrix(.68507817,0,0,.68507817,-138.19397,-140.08478)" d="M 288 246.48 L 504 246.48 L 504 390.48 L 288 390.48 Z "/>
</clipPath>
<clipPath id="4EA3D49A-875F-4B13-8D09-B3A239E6B04C_cp2">
<path transform="matrix(.68507817,0,0,.68507817,-138.19397,-140.08478)" d="M 288 246.48 L 504 246.48 L 504 390.48 L 288 390.48 Z "/>
</clipPath>
<clipPath id="4EA3D49A-875F-4B13-8D09-B3A239E6B04C_cp3">
<path transform="matrix(.68507817,0,0,.68507817,-138.19397,-140.08478)" d="M 288 246.48 L 504 246.48 L 504 390.48 L 288 390.48 Z "/>
</clipPath>
<clipPath id="4EA3D49A-875F-4B13-8D09-B3A239E6B04C_cp4">
<path transform="matrix(.68507817,0,0,.68507817,-138.19397,-140.08478)" d="M 288 246.48 L 504 246.48 L 504 390.48 L 288 390.48 Z "/>
</clipPath>
<clipPath id="4EA3D49A-875F-4B13-8D09-B3A239E6B04C_cp5">
<path transform="matrix(.68507817,0,0,.68507817,-138.19397,-140.08478)" d="M 288 246.48 L 504 246.48 L 504 390.48 L 288 390.48 Z "/>
</clipPath>
<clipPath id="4EA3D49A-875F-4B13-8D09-B3A239E6B04C_cp6">
<path transform="matrix(.68507817,0,0,.68507817,-138.19397,-140.08478)" d="M 288 246.48 L 504 246.48 L 504 390.48 L 288 390.48 Z "/>
</clipPath>
<clipPath id="4EA3D49A-875F-4B13-8D09-B3A239E6B04C_cp7">
<path transform="matrix(.68507817,0,0,.68507817,-138.19397,-140.08478)" d="M 288 246.48 L 504 246.48 L 504 390.48 L 288 390.48 Z "/>
</clipPath>
<clipPath id="4EA3D49A-875F-4B13-8D09-B3A239E6B04C_cp8">
<path transform="matrix(.68507817,0,0,.68507817,-138.19397,-140.08478)" d="M 288 246.48 L 504 246.48 L 504 390.48 L 288 390.48 Z "/>
</clipPath>
<clipPath id="4EA3D49A-875F-4B13-8D09-B3A239E6B04C_cp9">
<path transform="matrix(.68507817,0,0,.68507817,-138.19397,-140.08478)" d="M 287.76 246.12 L 504.48 246.12 L 504.48 390.84 L 287.76 390.84 Z "/>
</clipPath>
<g  clip-path="url(#4EA3D49A-875F-4B13-8D09-B3A239E6B04C_cp9)">
<path transform="matrix(.68507817,0,0,.68507817,-138.19397,-140.08478)" fill="none" stroke-width=".72" stroke-linecap="butt" stroke-miterlimit="1.4267182" stroke-linejoin="miter" stroke="#000000" d="M 285 341.28 L 285 341.28 "/>
</g>
<clipPath id="4EA3D49A-875F-4B13-8D09-B3A239E6B04C_cp10">
<path transform="matrix(.68507817,0,0,.68507817,-138.19397,-140.08478)" d="M 287.76 246.12 L 504.48 246.12 L 504.48 390.84 L 287.76 390.84 Z "/>
</clipPath>
<g  clip-path="url(#4EA3D49A-875F-4B13-8D09-B3A239E6B04C_cp10)">
<path transform="matrix(.68507817,0,0,.68507817,-138.19397,-140.08478)" fill="none" stroke-width=".72" stroke-linecap="butt" stroke-miterlimit="1.4267182" stroke-linejoin="miter" stroke="#000000" d="M 287.16 340.56 L 287.16 340.56 L 288.12 340.08 L 289.2 339.72 L 290.28 339.24 L 291.24 338.88 L 292.32 338.52 L 293.4 338.04 L 294.48 337.68 L 295.56 337.32 L 296.64 336.84 L 297.72 336.48 L 298.68 336.12 L 299.76 335.64 L 300.84 335.28 L 301.92 334.8 L 303 334.44 L 304.08 334.08 L 305.16 333.6 L 306.24 333.24 L 307.2 332.88 L 308.28 332.4 L 309.36 332.04 L 310.44 331.68 L 311.52 331.2 L 312.6 330.84 L 313.68 330.36 L 314.76 330 L 315.72 329.64 L 316.8 329.16 L 317.88 328.8 L 318.96 328.44 L 320.04 327.96 L 321.12 327.6 L 322.2 327.24 L 323.28 326.76 L 324.24 326.4 L 325.32 325.92 L 326.4 325.56 L 327.48 325.2 L 328.56 324.72 L 329.64 324.36 L 330.72 324 L 331.8 323.52 L 332.76 323.16 L 333.84 322.8 L 334.92 322.32 L 336 321.96 L 337.08 321.6 L 338.16 321.12 L 339.24 320.76 L 340.32 320.28 L 341.28 319.92 L 342.36 319.56 L 343.44 319.08 L 344.52 318.72 L 345.6 318.36 L 346.68 317.88 L 347.76 317.52 L 348.84 317.16 L 349.8 316.68 L 350.88 316.32 L 351.96 315.84 L 353.04 315.48 L 354.12 315.12 L 355.2 314.64 L 356.28 314.28 L 357.36 313.92 L 358.32 313.44 L 359.4 313.08 L 360.48 312.72 L 361.56 312.24 L 362.64 311.88 L 363.72 311.4 L 364.8 311.04 L 365.88 310.68 L 366.84 310.2 L 367.92 309.84 L 369 309.48 L 370.08 309 L 371.16 308.64 L 372.24 308.28 L 373.32 307.8 L 374.28 307.44 L 375.36 306.96 L 376.44 306.6 L 377.52 306.24 L 378.6 305.76 L 379.68 305.4 L 380.76 305.04 L 381.84 304.56 L 382.8 304.2 L 383.88 303.84 L 384.96 303.36 L 386.04 303 L 387.12 302.64 L 388.2 302.16 L 389.28 301.8 L 390.36 301.32 L 391.32 300.96 L 392.4 300.6 L 393.48 300.12 L 394.56 299.76 L 395.64 299.4 L 396.72 298.92 L 397.8 298.56 L 398.88 298.2 L 399.84 297.72 L 400.92 297.36 L 402 296.88 L 403.08 296.52 L 404.16 296.16 L 405.24 295.68 L 406.32 295.32 L 407.4 294.96 L 408.36 294.48 L 409.44 294.12 L 410.52 293.76 L 411.6 293.28 L 412.68 292.92 L 413.76 292.44 L 414.84 292.08 L 415.92 291.72 L 416.88 291.24 L 417.96 290.88 L 419.04 290.52 L 420.12 290.04 L 421.2 289.68 L 422.28 289.32 L 423.36 288.84 L 424.44 288.48 L 425.4 288 L 426.48 287.64 L 427.56 287.28 L 428.64 286.8 L 429.72 286.44 L 430.8 286.08 L 431.88 285.6 L 432.96 285.24 L 433.92 284.88 L 435 284.4 L 436.08 284.04 L 437.16 283.68 L 438.24 283.2 L 439.32 282.84 L 440.4 282.36 L 441.48 282 L 442.44 281.64 L 443.52 281.16 L 444.6 280.8 L 445.68 280.44 L 446.76 279.96 L 447.84 279.6 L 448.92 279.24 L 449.88 278.76 L 450.96 278.4 L 452.04 277.92 L 453.12 277.56 L 454.2 277.2 L 455.28 276.72 L 456.36 276.36 L 457.44 276 L 458.4 275.52 L 459.48 275.16 L 460.56 274.8 L 461.64 274.32 L 462.72 273.96 L 463.8 273.48 L 464.88 273.12 L 465.96 272.76 L 466.92 272.28 L 468 271.92 L 469.08 271.56 L 470.16 271.08 L 471.24 270.72 L 472.32 270.36 L 473.4 269.88 L 474.48 269.52 L 475.44 269.04 L 476.52 268.68 L 477.6 268.32 L 478.68 267.84 L 479.76 267.48 L 480.84 267.12 L 481.92 266.64 L 483 266.28 L 483.96 265.92 L 485.04 265.44 L 486.12 265.08 L 487.2 264.72 L 488.28 264.24 L 489.36 263.88 L 490.44 263.4 L 491.52 263.04 L 492.48 262.68 L 493.56 262.2 L 494.64 261.84 L 495.72 261.48 L 496.8 261 L 497.88 260.64 "/>
</g>
<clipPath id="4EA3D49A-875F-4B13-8D09-B3A239E6B04C_cp11">
<path transform="matrix(.68507817,0,0,.68507817,-138.19397,-140.08478)" d="M 288 246.48 L 504 246.48 L 504 390.48 L 288 390.48 Z "/>
</clipPath>
<clipPath id="4EA3D49A-875F-4B13-8D09-B3A239E6B04C_cp12">
<path transform="matrix(.68507817,0,0,.68507817,-138.19397,-140.08478)" d="M 287.76 246.12 L 504.48 246.12 L 504.48 390.84 L 287.76 390.84 Z "/>
</clipPath>
<g  clip-path="url(#4EA3D49A-875F-4B13-8D09-B3A239E6B04C_cp12)">
<path transform="matrix(.68507817,0,0,.68507817,-138.19397,-140.08478)" fill="none" stroke-width=".72" stroke-linecap="butt" stroke-miterlimit="1.4267182" stroke-linejoin="miter" stroke="#000000" d="M 285 370.92 L 285 370.92 "/>
</g>
<clipPath id="4EA3D49A-875F-4B13-8D09-B3A239E6B04C_cp13">
<path transform="matrix(.68507817,0,0,.68507817,-138.19397,-140.08478)" d="M 287.76 246.12 L 504.48 246.12 L 504.48 390.84 L 287.76 390.84 Z "/>
</clipPath>
<g  clip-path="url(#4EA3D49A-875F-4B13-8D09-B3A239E6B04C_cp13)">
<path transform="matrix(.68507817,0,0,.68507817,-138.19397,-140.08478)" fill="none" stroke-width=".72" stroke-linecap="butt" stroke-miterlimit="1.4267182" stroke-linejoin="miter" stroke="#000000" d="M 287.16 370.68 L 287.16 370.68 L 288.12 370.44 L 289.2 370.32 L 290.28 370.2 L 291.24 370.08 L 292.32 369.96 L 293.4 369.84 L 294.48 369.72 L 295.56 369.6 L 296.64 369.48 L 297.72 369.36 L 298.68 369.24 L 299.76 369.12 L 300.84 369 L 301.92 368.76 L 303 368.64 L 304.08 368.52 L 305.16 368.4 L 306.24 368.28 L 307.2 368.16 L 308.28 368.04 L 309.36 367.92 L 310.44 367.8 L 311.52 367.68 L 312.6 367.56 L 313.68 367.44 L 314.76 367.2 L 315.72 367.08 L 316.8 366.96 L 317.88 366.84 L 318.96 366.72 L 320.04 366.6 L 321.12 366.48 L 322.2 366.36 L 323.28 366.24 L 324.24 366.12 L 325.32 366 L 326.4 365.88 L 327.48 365.76 L 328.56 365.52 L 329.64 365.4 L 330.72 365.28 L 331.8 365.16 L 332.76 365.04 L 333.84 364.92 L 334.92 364.8 L 336 364.68 L 337.08 364.56 L 338.16 364.44 L 339.24 364.32 L 340.32 364.2 L 341.28 364.08 L 342.36 363.84 L 343.44 363.72 L 344.52 363.6 L 345.6 363.48 L 346.68 363.36 L 347.76 363.24 L 348.84 363.12 L 349.8 363 L 350.88 362.88 L 351.96 362.76 L 353.04 362.64 L 354.12 362.52 L 355.2 362.4 L 356.28 362.16 L 357.36 362.04 L 358.32 361.92 L 359.4 361.8 L 360.48 361.68 L 361.56 361.56 L 362.64 361.44 L 363.72 361.32 L 364.8 361.2 L 365.88 361.08 L 366.84 360.96 L 367.92 360.84 L 369 360.6 L 370.08 360.48 L 371.16 360.36 L 372.24 360.24 L 373.32 360.12 L 374.28 360 L 375.36 359.88 L 376.44 359.76 L 377.52 359.64 L 378.6 359.52 L 379.68 359.4 L 380.76 359.28 L 381.84 359.16 L 382.8 358.92 L 383.88 358.8 L 384.96 358.68 L 386.04 358.56 L 387.12 358.44 L 388.2 358.32 L 389.28 358.2 L 390.36 358.08 L 391.32 357.96 L 392.4 357.84 L 393.48 357.72 L 394.56 357.6 L 395.64 357.48 L 396.72 357.24 L 397.8 357.12 L 398.88 357 L 399.84 356.88 L 400.92 356.76 L 402 356.64 L 403.08 356.52 L 404.16 356.4 L 405.24 356.28 L 406.32 356.16 L 407.4 356.04 L 408.36 355.92 L 409.44 355.8 L 410.52 355.56 L 411.6 355.44 L 412.68 355.32 L 413.76 355.2 L 414.84 355.08 L 415.92 354.96 L 416.88 354.84 L 417.96 354.72 L 419.04 354.6 L 420.12 354.48 L 421.2 354.36 L 422.28 354.24 L 423.36 354 L 424.44 353.88 L 425.4 353.76 L 426.48 353.64 L 427.56 353.52 L 428.64 353.4 L 429.72 353.28 L 430.8 353.16 L 431.88 353.04 L 432.96 352.92 L 433.92 352.8 L 435 352.68 L 436.08 352.56 L 437.16 352.32 L 438.24 352.2 L 439.32 352.08 L 440.4 351.96 L 441.48 351.84 L 442.44 351.72 L 443.52 351.6 L 444.6 351.48 L 445.68 351.36 L 446.76 351.24 L 447.84 351.12 L 448.92 351 L 449.88 350.88 L 450.96 350.64 L 452.04 350.52 L 453.12 350.4 L 454.2 350.28 L 455.28 350.16 L 456.36 350.04 L 457.44 349.92 L 458.4 349.8 L 459.48 349.68 L 460.56 349.56 L 461.64 349.44 L 462.72 349.32 L 463.8 349.2 L 464.88 348.96 L 465.96 348.84 L 466.92 348.72 L 468 348.6 L 469.08 348.48 L 470.16 348.36 L 471.24 348.24 L 472.32 348.12 L 473.4 348 L 474.48 347.88 L 475.44 347.76 L 476.52 347.64 L 477.6 347.4 L 478.68 347.28 L 479.76 347.16 L 480.84 347.04 L 481.92 346.92 L 483 346.8 L 483.96 346.68 L 485.04 346.56 L 486.12 346.44 L 487.2 346.32 L 488.28 346.2 L 489.36 346.08 L 490.44 345.96 L 491.52 345.72 L 492.48 345.6 L 493.56 345.48 L 494.64 345.36 L 495.72 345.24 L 496.8 345.12 L 497.88 345 "/>
</g>
<clipPath id="4EA3D49A-875F-4B13-8D09-B3A239E6B04C_cp14">
<path transform="matrix(.68507817,0,0,.68507817,-138.19397,-140.08478)" d="M 288 246.48 L 504 246.48 L 504 390.48 L 288 390.48 Z "/>
</clipPath>
<clipPath id="4EA3D49A-875F-4B13-8D09-B3A239E6B04C_cp15">
<path transform="matrix(.68507817,0,0,.68507817,-138.19397,-140.08478)" d="M 287.76 246.12 L 504.48 246.12 L 504.48 390.84 L 287.76 390.84 Z "/>
</clipPath>
<g  clip-path="url(#4EA3D49A-875F-4B13-8D09-B3A239E6B04C_cp15)">
<path transform="matrix(.68507817,0,0,.68507817,-138.19397,-140.08478)" fill="none" stroke-width=".72" stroke-linecap="butt" stroke-miterlimit="1.4267182" stroke-linejoin="miter" stroke="#000000" d="M 285 362.76 L 285 362.76 "/>
</g>
<clipPath id="4EA3D49A-875F-4B13-8D09-B3A239E6B04C_cp16">
<path transform="matrix(.68507817,0,0,.68507817,-138.19397,-140.08478)" d="M 287.76 246.12 L 504.48 246.12 L 504.48 390.84 L 287.76 390.84 Z "/>
</clipPath>
<g  clip-path="url(#4EA3D49A-875F-4B13-8D09-B3A239E6B04C_cp16)">
<path transform="matrix(.68507817,0,0,.68507817,-138.19397,-140.08478)" fill="none" stroke-width=".72" stroke-linecap="butt" stroke-miterlimit="1.4267182" stroke-linejoin="miter" stroke="#000000" d="M 287.16 362.28 L 287.16 362.28 L 288.12 362.04 L 289.2 361.8 L 290.28 361.44 L 291.24 361.2 L 292.32 360.96 L 293.4 360.72 L 294.48 360.48 L 295.56 360.24 L 296.64 360 L 297.72 359.64 L 298.68 359.4 L 299.76 359.16 L 300.84 358.92 L 301.92 358.68 L 303 358.44 L 304.08 358.08 L 305.16 357.84 L 306.24 357.6 L 307.2 357.36 L 308.28 357.12 L 309.36 356.88 L 310.44 356.52 L 311.52 356.28 L 312.6 356.04 L 313.68 355.8 L 314.76 355.56 L 315.72 355.32 L 316.8 355.08 L 317.88 354.72 L 318.96 354.48 L 320.04 354.24 L 321.12 354 L 322.2 353.76 L 323.28 353.52 L 324.24 353.16 L 325.32 352.92 L 326.4 352.68 L 327.48 352.44 L 328.56 352.2 L 329.64 351.96 L 330.72 351.6 L 331.8 351.36 L 332.76 351.12 L 333.84 350.88 L 334.92 350.64 L 336 350.4 L 337.08 350.16 L 338.16 349.8 L 339.24 349.56 L 340.32 349.32 L 341.28 349.08 L 342.36 348.84 L 343.44 348.6 L 344.52 348.24 L 345.6 348 L 346.68 347.76 L 347.76 347.52 L 348.84 347.28 L 349.8 347.04 L 350.88 346.68 L 351.96 346.44 L 353.04 346.2 L 354.12 345.96 L 355.2 345.72 L 356.28 345.48 L 357.36 345.24 L 358.32 344.88 L 359.4 344.64 L 360.48 344.4 L 361.56 344.16 L 362.64 343.92 L 363.72 343.68 L 364.8 343.32 L 365.88 343.08 L 366.84 342.84 L 367.92 342.6 L 369 342.36 L 370.08 342.12 L 371.16 341.76 L 372.24 341.52 L 373.32 341.28 L 374.28 341.04 L 375.36 340.8 L 376.44 340.56 L 377.52 340.32 L 378.6 339.96 L 379.68 339.72 L 380.76 339.48 L 381.84 339.24 L 382.8 339 L 383.88 338.76 L 384.96 338.4 L 386.04 338.16 L 387.12 337.92 L 388.2 337.68 L 389.28 337.44 L 390.36 337.2 L 391.32 336.96 L 392.4 336.6 L 393.48 336.36 L 394.56 336.12 L 395.64 335.88 L 396.72 335.64 L 397.8 335.4 L 398.88 335.04 L 399.84 334.8 L 400.92 334.56 L 402 334.32 L 403.08 334.08 L 404.16 333.84 L 405.24 333.48 L 406.32 333.24 L 407.4 333 L 408.36 332.76 L 409.44 332.52 L 410.52 332.28 L 411.6 332.04 L 412.68 331.68 L 413.76 331.44 L 414.84 331.2 L 415.92 330.96 L 416.88 330.72 L 417.96 330.48 L 419.04 330.12 L 420.12 329.88 L 421.2 329.64 L 422.28 329.4 L 423.36 329.16 L 424.44 328.92 L 425.4 328.56 L 426.48 328.32 L 427.56 328.08 L 428.64 327.84 L 429.72 327.6 L 430.8 327.36 L 431.88 327.12 L 432.96 326.76 L 433.92 326.52 L 435 326.28 L 436.08 326.04 L 437.16 325.8 L 438.24 325.56 L 439.32 325.2 L 440.4 324.96 L 441.48 324.72 L 442.44 324.48 L 443.52 324.24 L 444.6 324 L 445.68 323.64 L 446.76 323.4 L 447.84 323.16 L 448.92 322.92 L 449.88 322.68 L 450.96 322.44 L 452.04 322.2 L 453.12 321.84 L 454.2 321.6 L 455.28 321.36 L 456.36 321.12 L 457.44 320.88 L 458.4 320.64 L 459.48 320.28 L 460.56 320.04 L 461.64 319.8 L 462.72 319.56 L 463.8 319.32 L 464.88 319.08 L 465.96 318.72 L 466.92 318.48 L 468 318.24 L 469.08 318 L 470.16 317.76 L 471.24 317.52 L 472.32 317.28 L 473.4 316.92 L 474.48 316.68 L 475.44 316.44 L 476.52 316.2 L 477.6 315.96 L 478.68 315.72 L 479.76 315.36 L 480.84 315.12 L 481.92 314.88 L 483 314.64 L 483.96 314.4 L 485.04 314.16 L 486.12 313.92 L 487.2 313.56 L 488.28 313.32 L 489.36 313.08 L 490.44 312.84 L 491.52 312.6 L 492.48 312.36 L 493.56 312 L 494.64 311.76 L 495.72 311.52 L 496.8 311.28 L 497.88 311.04 "/>
</g>
<clipPath id="4EA3D49A-875F-4B13-8D09-B3A239E6B04C_cp17">
<path transform="matrix(.68507817,0,0,.68507817,-138.19397,-140.08478)" d="M 288 246.48 L 504 246.48 L 504 390.48 L 288 390.48 Z "/>
</clipPath>
<clipPath id="4EA3D49A-875F-4B13-8D09-B3A239E6B04C_cp18">
<path transform="matrix(.68507817,0,0,.68507817,-138.19397,-140.08478)" d="M 287.76 246.12 L 504.48 246.12 L 504.48 390.84 L 287.76 390.84 Z "/>
</clipPath>
<g  clip-path="url(#4EA3D49A-875F-4B13-8D09-B3A239E6B04C_cp18)">
<path transform="matrix(.68507817,0,0,.68507817,-138.19397,-140.08478)" fill="none" stroke-width=".72" stroke-linecap="butt" stroke-miterlimit="1.4267182" stroke-linejoin="miter" stroke="#000000" d="M 285 388.68 L 285 388.68 "/>
</g>
<clipPath id="4EA3D49A-875F-4B13-8D09-B3A239E6B04C_cp19">
<path transform="matrix(.68507817,0,0,.68507817,-138.19397,-140.08478)" d="M 287.76 246.12 L 504.48 246.12 L 504.48 390.84 L 287.76 390.84 Z "/>
</clipPath>
<g  clip-path="url(#4EA3D49A-875F-4B13-8D09-B3A239E6B04C_cp19)">
<path transform="matrix(.68507817,0,0,.68507817,-138.19397,-140.08478)" fill="none" stroke-width=".72" stroke-linecap="butt" stroke-miterlimit="1.4267182" stroke-linejoin="miter" stroke="#000000" d="M 287.16 388.68 L 287.16 388.68 L 288.12 388.68 L 289.2 388.68 L 290.28 388.68 L 291.24 388.68 L 292.32 388.56 L 293.4 388.56 L 294.48 388.56 L 295.56 388.56 L 296.64 388.56 L 297.72 388.56 L 298.68 388.56 L 299.76 388.56 L 300.84 388.44 L 301.92 388.44 L 303 388.44 L 304.08 388.44 L 305.16 388.44 L 306.24 388.44 L 307.2 388.44 L 308.28 388.44 L 309.36 388.32 L 310.44 388.32 L 311.52 388.32 L 312.6 388.32 L 313.68 388.32 L 314.76 388.32 L 315.72 388.32 L 316.8 388.32 L 317.88 388.2 L 318.96 388.2 L 320.04 388.2 L 321.12 388.2 L 322.2 388.2 L 323.28 388.2 L 324.24 388.2 L 325.32 388.2 L 326.4 388.08 L 327.48 388.08 L 328.56 388.08 L 329.64 388.08 L 330.72 388.08 L 331.8 388.08 L 332.76 388.08 L 333.84 388.08 L 334.92 387.96 L 336 387.96 L 337.08 387.96 L 338.16 387.96 L 339.24 387.96 L 340.32 387.96 L 341.28 387.96 L 342.36 387.96 L 343.44 387.84 L 344.52 387.84 L 345.6 387.84 L 346.68 387.84 L 347.76 387.84 L 348.84 387.84 L 349.8 387.84 L 350.88 387.84 L 351.96 387.72 L 353.04 387.72 L 354.12 387.72 L 355.2 387.72 L 356.28 387.72 L 357.36 387.72 L 358.32 387.72 L 359.4 387.72 L 360.48 387.6 L 361.56 387.6 L 362.64 387.6 L 363.72 387.6 L 364.8 387.6 L 365.88 387.6 L 366.84 387.6 L 367.92 387.48 L 369 387.48 L 370.08 387.48 L 371.16 387.48 L 372.24 387.48 L 373.32 387.48 L 374.28 387.48 L 375.36 387.48 L 376.44 387.36 L 377.52 387.36 L 378.6 387.36 L 379.68 387.36 L 380.76 387.36 L 381.84 387.36 L 382.8 387.36 L 383.88 387.36 L 384.96 387.24 L 386.04 387.24 L 387.12 387.24 L 388.2 387.24 L 389.28 387.24 L 390.36 387.24 L 391.32 387.24 L 392.4 387.24 L 393.48 387.12 L 394.56 387.12 L 395.64 387.12 L 396.72 387.12 L 397.8 387.12 L 398.88 387.12 L 399.84 387.12 L 400.92 387.12 L 402 387 L 403.08 387 L 404.16 387 L 405.24 387 L 406.32 387 L 407.4 387 L 408.36 387 L 409.44 387 L 410.52 386.88 L 411.6 386.88 L 412.68 386.88 L 413.76 386.88 L 414.84 386.88 L 415.92 386.88 L 416.88 386.88 L 417.96 386.88 L 419.04 386.76 L 420.12 386.76 L 421.2 386.76 L 422.28 386.76 L 423.36 386.76 L 424.44 386.76 L 425.4 386.76 L 426.48 386.76 L 427.56 386.64 L 428.64 386.64 L 429.72 386.64 L 430.8 386.64 L 431.88 386.64 L 432.96 386.64 L 433.92 386.64 L 435 386.64 L 436.08 386.52 L 437.16 386.52 L 438.24 386.52 L 439.32 386.52 L 440.4 386.52 L 441.48 386.52 L 442.44 386.52 L 443.52 386.52 L 444.6 386.4 L 445.68 386.4 L 446.76 386.4 L 447.84 386.4 L 448.92 386.4 L 449.88 386.4 L 450.96 386.4 L 452.04 386.4 L 453.12 386.28 L 454.2 386.28 L 455.28 386.28 L 456.36 386.28 L 457.44 386.28 L 458.4 386.28 L 459.48 386.28 L 460.56 386.28 L 461.64 386.16 L 462.72 386.16 L 463.8 386.16 L 464.88 386.16 L 465.96 386.16 L 466.92 386.16 L 468 386.16 L 469.08 386.16 L 470.16 386.04 L 471.24 386.04 L 472.32 386.04 L 473.4 386.04 L 474.48 386.04 L 475.44 386.04 L 476.52 386.04 L 477.6 386.04 L 478.68 385.92 L 479.76 385.92 L 480.84 385.92 L 481.92 385.92 L 483 385.92 L 483.96 385.92 L 485.04 385.92 L 486.12 385.92 L 487.2 385.8 L 488.28 385.8 L 489.36 385.8 L 490.44 385.8 L 491.52 385.8 L 492.48 385.8 L 493.56 385.8 L 494.64 385.8 L 495.72 385.68 L 496.8 385.68 L 497.88 385.68 "/>
</g>
<clipPath id="4EA3D49A-875F-4B13-8D09-B3A239E6B04C_cp20">
<path transform="matrix(.68507817,0,0,.68507817,-138.19397,-140.08478)" d="M 288 246.48 L 504 246.48 L 504 390.48 L 288 390.48 Z "/>
</clipPath>
<clipPath id="4EA3D49A-875F-4B13-8D09-B3A239E6B04C_cp21">
<path transform="matrix(.68507817,0,0,.68507817,-138.19397,-140.08478)" d="M 287.76 246.12 L 504.48 246.12 L 504.48 390.84 L 287.76 390.84 Z "/>
</clipPath>
<g  clip-path="url(#4EA3D49A-875F-4B13-8D09-B3A239E6B04C_cp21)">
<path transform="matrix(.68507817,0,0,.68507817,-138.19397,-140.08478)" fill="none" stroke-width=".72" stroke-linecap="butt" stroke-miterlimit="1.4267182" stroke-linejoin="miter" stroke="#0000ff" d="M 285 338.52 L 285 338.52 L 288 337.92 L 291 337.32 L 294 336.6 L 297.12 336 L 300.12 335.16 L 303.12 334.32 L 306.24 333.48 L 309.24 332.88 L 312.24 331.8 L 315.36 330.84 L 318.36 329.76 L 321.36 329.04 L 324.48 328.2 L 327.48 327.12 L 330.48 326.04 L 333.6 324.72 L 336.6 323.28 L 339.6 321.36 L 342.72 319.92 L 345.72 318.48 L 348.84 317.04 L 351.84 315.6 L 354.84 314.16 L 357.96 312.84 L 360.96 311.4 L 363.96 310.08 L 367.08 308.88 L 370.08 307.8 L 373.08 306.96 L 376.2 305.88 L 379.2 305.04 L 382.2 303.84 L 385.32 302.76 L 388.32 301.92 L 391.32 301.08 L 394.44 299.76 L 397.44 298.92 L 400.56 297.96 L 403.56 297 L 406.56 296.04 L 409.68 295.2 L 412.68 294.24 L 415.68 293.04 L 418.8 292.08 L 421.8 290.76 L 424.8 288.48 L 427.92 287.28 L 430.92 286.08 L 433.92 284.4 L 437.04 283.32 L 440.04 282 L 443.04 280.68 L 446.16 279.24 L 449.16 278.28 L 452.28 277.32 L 455.28 276.36 L 458.28 275.52 L 461.4 273.72 L 464.4 272.64 L 467.4 271.56 L 470.52 270.12 L 473.52 268.8 L 476.52 268.08 L 479.64 266.76 L 482.64 266.16 L 485.64 265.56 L 488.76 265.08 L 491.76 263.88 L 494.76 262.44 L 497.88 261.6 "/>
</g>
<clipPath id="4EA3D49A-875F-4B13-8D09-B3A239E6B04C_cp22">
<path transform="matrix(.68507817,0,0,.68507817,-138.19397,-140.08478)" d="M 288 246.48 L 504 246.48 L 504 390.48 L 288 390.48 Z "/>
</clipPath>
<clipPath id="4EA3D49A-875F-4B13-8D09-B3A239E6B04C_cp23">
<path transform="matrix(.68507817,0,0,.68507817,-138.19397,-140.08478)" d="M 287.76 246.12 L 504.48 246.12 L 504.48 390.84 L 287.76 390.84 Z "/>
</clipPath>
<g  clip-path="url(#4EA3D49A-875F-4B13-8D09-B3A239E6B04C_cp23)">
<path transform="matrix(.68507817,0,0,.68507817,-138.19397,-140.08478)" fill="none" stroke-width=".72" stroke-linecap="butt" stroke-miterlimit="1.4267182" stroke-linejoin="miter" stroke="#f94040" d="M 285 369.12 L 285 369.12 L 288 369.12 L 291 369.24 L 294 368.76 L 297.12 368.4 L 300.12 368.04 L 303.12 367.68 L 306.24 367.32 L 309.24 366.72 L 312.24 366.24 L 315.36 365.88 L 318.36 365.52 L 321.36 365.4 L 324.48 365.28 L 327.48 364.92 L 330.48 364.8 L 333.6 364.44 L 336.6 363.72 L 339.6 363.12 L 342.72 362.88 L 345.72 362.64 L 348.84 362.04 L 351.84 361.8 L 354.84 361.68 L 357.96 361.92 L 360.96 361.8 L 363.96 361.32 L 367.08 361.08 L 370.08 360.72 L 373.08 360.48 L 376.2 360.36 L 379.2 360.48 L 382.2 360.36 L 385.32 360.36 L 388.32 360.36 L 391.32 360.48 L 394.44 360.12 L 397.44 359.52 L 400.56 359.52 L 403.56 359.04 L 406.56 358.92 L 409.68 358.68 L 412.68 358.56 L 415.68 358.44 L 418.8 358.08 L 421.8 357.72 L 424.8 357 L 427.92 356.28 L 430.92 355.68 L 433.92 354.72 L 437.04 354.12 L 440.04 353.64 L 443.04 353.4 L 446.16 352.8 L 449.16 352.32 L 452.28 351.36 L 455.28 350.28 L 458.28 349.2 L 461.4 348.12 L 464.4 347.16 L 467.4 346.32 L 470.52 345.6 L 473.52 345.24 L 476.52 345 L 479.64 344.64 L 482.64 344.64 L 485.64 342.72 L 488.76 342.48 L 491.76 342.72 L 494.76 342.6 L 497.88 342.36 "/>
</g>
<clipPath id="4EA3D49A-875F-4B13-8D09-B3A239E6B04C_cp24">
<path transform="matrix(.68507817,0,0,.68507817,-138.19397,-140.08478)" d="M 288 246.48 L 504 246.48 L 504 390.48 L 288 390.48 Z "/>
</clipPath>
<clipPath id="4EA3D49A-875F-4B13-8D09-B3A239E6B04C_cp25">
<path transform="matrix(.68507817,0,0,.68507817,-138.19397,-140.08478)" d="M 287.76 246.12 L 504.48 246.12 L 504.48 390.84 L 287.76 390.84 Z "/>
</clipPath>
<g  clip-path="url(#4EA3D49A-875F-4B13-8D09-B3A239E6B04C_cp25)">
<path transform="matrix(.68507817,0,0,.68507817,-138.19397,-140.08478)" fill="none" stroke-width=".72" stroke-linecap="butt" stroke-miterlimit="1.4267182" stroke-linejoin="miter" stroke="#000000" d="M 285 361.68 L 285 361.68 L 288 360.72 L 291 359.88 L 294 359.76 L 297.12 360.24 L 300.12 359.52 L 303.12 358.92 L 306.24 359.04 L 309.24 358.56 L 312.24 357.96 L 315.36 357.24 L 318.36 356.4 L 321.36 355.56 L 324.48 354.84 L 327.48 354.12 L 330.48 353.16 L 333.6 352.8 L 336.6 352.44 L 339.6 351.12 L 342.72 349.68 L 345.72 348.84 L 348.84 349.32 L 351.84 347.88 L 354.84 346.32 L 357.96 344.4 L 360.96 343.08 L 363.96 342.84 L 367.08 342.36 L 370.08 342.72 L 373.08 342.12 L 376.2 340.08 L 379.2 339.12 L 382.2 337.92 L 385.32 336.6 L 388.32 335.4 L 391.32 334.2 L 394.44 333.48 L 397.44 334.08 L 400.56 333.72 L 403.56 332.76 L 406.56 331.44 L 409.68 330.6 L 412.68 329.76 L 415.68 328.32 L 418.8 327.48 L 421.8 326.52 L 424.8 324.84 L 427.92 324.84 L 430.92 325.08 L 433.92 324.48 L 437.04 323.64 L 440.04 322.56 L 443.04 321.24 L 446.16 320.4 L 449.16 320.76 L 452.28 323.4 L 455.28 323.76 L 458.28 323.4 L 461.4 322.2 L 464.4 321.48 L 467.4 320.28 L 470.52 319.08 L 473.52 317.88 L 476.52 316.92 L 479.64 315.72 L 482.64 314.88 L 485.64 319.56 L 488.76 317.28 L 491.76 314.52 L 494.76 313.2 L 497.88 313.08 "/>
</g>
<clipPath id="4EA3D49A-875F-4B13-8D09-B3A239E6B04C_cp26">
<path transform="matrix(.68507817,0,0,.68507817,-138.19397,-140.08478)" d="M 288 246.48 L 504 246.48 L 504 390.48 L 288 390.48 Z "/>
</clipPath>
<clipPath id="4EA3D49A-875F-4B13-8D09-B3A239E6B04C_cp27">
<path transform="matrix(.68507817,0,0,.68507817,-138.19397,-140.08478)" d="M 287.76 246.12 L 504.48 246.12 L 504.48 390.84 L 287.76 390.84 Z "/>
</clipPath>
<g  clip-path="url(#4EA3D49A-875F-4B13-8D09-B3A239E6B04C_cp27)">
<path transform="matrix(.68507817,0,0,.68507817,-138.19397,-140.08478)" fill="none" stroke-width=".72" stroke-linecap="butt" stroke-miterlimit="1.4267182" stroke-linejoin="miter" stroke="#ad07e3" d="M 285 388.8 L 285 388.8 L 288 389.16 L 291 389.16 L 294 389.16 L 297.12 388.32 L 300.12 388.8 L 303.12 388.68 L 306.24 388.32 L 309.24 388.68 L 312.24 388.56 L 315.36 388.68 L 318.36 388.92 L 321.36 389.16 L 324.48 389.16 L 327.48 389.16 L 330.48 389.16 L 333.6 388.56 L 336.6 388.08 L 339.6 388.2 L 342.72 388.44 L 345.72 388.08 L 348.84 386.76 L 351.84 387 L 354.84 387.24 L 357.96 387.6 L 360.96 387.6 L 363.96 386.88 L 367.08 386.52 L 370.08 385.44 L 373.08 385.44 L 376.2 386.4 L 379.2 386.52 L 382.2 386.64 L 385.32 387 L 388.32 387.36 L 391.32 387.36 L 394.44 387.12 L 397.44 386.4 L 400.56 385.92 L 403.56 386.28 L 406.56 386.76 L 409.68 387 L 412.68 387.12 L 415.68 387.36 L 418.8 387.6 L 421.8 387.72 L 424.8 387.84 L 427.92 387.24 L 430.92 386.52 L 433.92 386.28 L 437.04 386.64 L 440.04 386.88 L 443.04 387.12 L 446.16 387.12 L 449.16 386.28 L 452.28 383.64 L 455.28 383.4 L 458.28 384 L 461.4 384.48 L 464.4 385.08 L 467.4 385.92 L 470.52 386.52 L 473.52 386.76 L 476.52 387.24 L 479.64 387.48 L 482.64 387.6 L 485.64 384.36 L 488.76 386.4 L 491.76 387.72 L 494.76 387.6 L 497.88 387.24 "/>
</g>
<clipPath id="4EA3D49A-875F-4B13-8D09-B3A239E6B04C_cp28">
<path transform="matrix(.68507817,0,0,.68507817,-138.19397,-140.08478)" d="M 227.64 211.68 L 564.48 211.68 L 564.48 233.52 L 227.64 233.52 Z "/>
</clipPath>
<text transform="matrix(.68507817 0 0 .68507817 -138.19397 -140.08478)" font-size="13.92" font-family="Arial" font-weight="bold"><tspan y="227.52" x="230.52 240.6 249.12 254.52 259.92 267.72 276.24 280.8 284.64 293.88 302.4 310.92 319.44 323.16 330.96 335.64 339.48 348 356.52 360.36 369.48 378 383.4 391.2 399 406.8 410.64 420.6 428.4 433.08 440.88 444.72 449.4 454.8 463.2 475.56 479.4 487.2 495 502.8 510.48 514.32 519 527.52 531.36 541.44 549.24 553.8">Current Population Survey Data from 1955 to Date</tspan></text>
<clipPath id="4EA3D49A-875F-4B13-8D09-B3A239E6B04C_cp29">
<path transform="matrix(.68507817,0,0,.68507817,-138.19397,-140.08478)" d="M 380.52 411.12 L 411.6 411.12 L 411.6 430.68 L 380.52 430.68 Z "/>
</clipPath>
<text transform="matrix(.68507817 0 0 .68507817 -138.19397 -140.08478)" font-size="12" font-family="Arial" font-weight="bold"><tspan y="425.16" x="383.4 391.2 397.68 404.04">Year</tspan></text>
<clipPath id="4EA3D49A-875F-4B13-8D09-B3A239E6B04C_cp30">
<path transform="matrix(.68507817,0,0,.68507817,-138.19397,-140.08478)" d="M 208.92 279.36 L 242.52 279.36 L 242.52 357.12 L 208.92 357.12 Z "/>
</clipPath>
<text transform="matrix(-.00000002051516 -.46933208 .46933208 -.00000002051516 -154.0348 172.67662)" font-size="12" font-family="Arial" font-weight="bold"><tspan y="349.44" x="222.96 231 238.32 245.64 252.96 256.32 263.04 267 270.36 277.68">Population</tspan></text>
<text transform="matrix(-.00000002051516 -.46933208 .46933208 -.00000002051516 -149.75449 181.46253)" font-size="12" font-family="Arial" font-weight="bold"><tspan y="354.24" x="236.88 240.84 248.16 255.48 262.8 270.12 276.84 283.56 290.88 298.2 304.92">(Thousands)</tspan></text>
<clipPath id="4EA3D49A-875F-4B13-8D09-B3A239E6B04C_cp31">
<path transform="matrix(.68507817,0,0,.68507817,-138.19397,-140.08478)" d="M 531.12 265.68 L 649.56 265.68 L 649.56 284.88 L 531.12 284.88 Z "/>
</clipPath>
<text transform="matrix(.68507817 0 0 .68507817 -138.19397 -140.08478)" font-size="12" font-family="Arial"><tspan y="279.36" x="560.88 568.2 574.8 578.04 584.64 587.28 593.88 601.8 611.64 618.24 620.88 627.48 633.36 639.96">Total_Employed</tspan></text>
<line transform="matrix(.68507817,0,0,.68507817,-138.19397,-140.08478)" x1="536.88" y1="275.28" x2="552.24" y2="275.28" stroke-width="1.050975" stroke-linecap="butt" stroke-miterlimit="1.4267182" stroke-linejoin="miter" stroke="#000000"/>
<clipPath id="4EA3D49A-875F-4B13-8D09-B3A239E6B04C_cp32">
<path transform="matrix(.68507817,0,0,.68507817,-138.19397,-140.08478)" d="M 531.12 304.08 L 755.04 304.08 L 755.04 323.28 L 531.12 323.28 Z "/>
</clipPath>
<text transform="matrix(.68507817 0 0 .68507817 -138.19397 -140.08478)" font-size="12" font-family="Arial"><tspan y="317.76" x="560.88 569.52 572.16 578.16 580.8 583.44 586.08 592.8 599.52 606.24 614.88 621.6 628.32 630.96 637.68 643.68 647.04 649.68 653.04 659.76 663.12 665.76 672.48 679.2 685.92 688.56 695.28 703.32 710.04 716.76 723.48 726.12 732.84 736.2 738.84 745.44">Civilian_Noninstitutional_Population</tspan></text>
<line transform="matrix(.68507817,0,0,.68507817,-138.19397,-140.08478)" x1="536.88" y1="313.68" x2="552.24" y2="313.68" stroke-width="1.050975" stroke-linecap="butt" stroke-miterlimit="1.4267182" stroke-linejoin="miter" stroke="#0000ff"/>
<clipPath id="4EA3D49A-875F-4B13-8D09-B3A239E6B04C_cp33">
<path transform="matrix(.68507817,0,0,.68507817,-138.19397,-140.08478)" d="M 531.12 284.88 L 674.28 284.88 L 674.28 304.08 L 531.12 304.08 Z "/>
</clipPath>
<text transform="matrix(.68507817 0 0 .68507817 -138.19397 -140.08478)" font-size="12" font-family="Arial"><tspan y="298.56" x="560.88 569.52 576.24 579.6 586.32 589.68 596.4 603.12 609.84 616.56 623.28 630 633.96 640.68 648 654.72 658.68 664.68">Not_In_Labor_Force</tspan></text>
<line transform="matrix(.68507817,0,0,.68507817,-138.19397,-140.08478)" x1="536.88" y1="294.48" x2="552.24" y2="294.48" stroke-width="1.050975" stroke-linecap="butt" stroke-miterlimit="1.4267182" stroke-linejoin="miter" stroke="#f94040"/>
<clipPath id="4EA3D49A-875F-4B13-8D09-B3A239E6B04C_cp34">
<path transform="matrix(.68507817,0,0,.68507817,-138.19397,-140.08478)" d="M 531.12 246.48 L 663.6 246.48 L 663.6 265.68 L 531.12 265.68 Z "/>
</clipPath>
<text transform="matrix(.68507817 0 0 .68507817 -138.19397 -140.08478)" font-size="12" font-family="Arial"><tspan y="260.16" x="560.88 568.2 574.8 578.16 584.76 587.4 594 602.52 609.12 615.84 625.68 632.28 634.92 641.52 647.4 654">Total_Unemployed</tspan></text>
<line transform="matrix(.68507817,0,0,.68507817,-138.19397,-140.08478)" x1="536.88" y1="256.08" x2="552.24" y2="256.08" stroke-width="1.050975" stroke-linecap="butt" stroke-miterlimit="1.4267182" stroke-linejoin="miter" stroke="#ad07e3"/>
</g>
</svg>
